<?xml version="1.0" encoding="iso-8859-1"?>
<!-- Generator: Adobe Illustrator 21.0.0, SVG Export Plug-In . SVG Version: 6.00 Build 0)  -->
<svg xmlns="http://www.w3.org/2000/svg" xmlns:xlink="http://www.w3.org/1999/xlink" version="1.1" id="Capa_1" x="0px" y="0px" viewBox="0 0 512 512" style="enable-background:new 0 0 512 512;" xml:space="preserve" width="512" height="512">
<path d="M417.511,410.868v-71.133H304.443v-153.56c30.379-17.027,50.96-49.539,50.96-86.772C355.403,44.592,310.811,0,256,0  s-99.403,44.592-99.403,99.403c0,37.234,20.581,69.745,50.96,86.772v153.56H94.489v71.133H58.923V512h394.154V410.868H417.511z   M186.597,99.403C186.597,61.134,217.731,30,256,30s69.403,31.134,69.403,69.403S294.269,168.807,256,168.807  S186.597,137.673,186.597,99.403z M237.557,197.084c5.979,1.126,12.142,1.722,18.443,1.722s12.464-0.596,18.443-1.722v142.651  h-36.886V197.084z M124.489,369.735h263.022v41.133H124.489V369.735z M423.077,482H88.923v-41.132h334.154V482z"/>















</svg>
